<svg height="2334" width="720" xmlns="http://www.w3.org/2000/svg">
<rect height="2334" fill="#555" width="720"></rect>
<text fill="#7f7" font-family="Courier New" font-size="12" xml:space="preserve">
<tspan x="10" y="26"></tspan>
<tspan x="10" y="42">&gt; npmdoc-gulp-minify-html@0.0.1 test /home/travis/build/npmdoc/node-npmdoc-gulp-minify-html</tspan>
<tspan x="10" y="58">&gt; (set -e; export PORT=$(utility2 shServerPortRandom); utility2 test test.js)</tspan>
<tspan x="10" y="74"></tspan>
<tspan x="10" y="90"></tspan>
<tspan x="10" y="106">[MODE_BUILD=npmTest] - 2017-03-25T11:20:51Z - npm-testing /home/travis/build/npmdoc/node-npmdoc-\</tspan>
<tspan x="10" y="122">gulp-minify-html</tspan>
<tspan x="10" y="138"></tspan>
<tspan x="10" y="154"></tspan>
<tspan x="10" y="170">covering $ /home/travis/.nvm/versions/node/v7.7.4/bin/node /home/travis/build/npmdoc/node-npmdoc\</tspan>
<tspan x="10" y="186">-gulp-minify-html/test.js</tspan>
<tspan x="10" y="202">merging file:///home/travis/build/npmdoc/node-npmdoc-gulp-minify-html/tmp/build/test-report.json\</tspan>
<tspan x="10" y="218"> to test-report</tspan>
<tspan x="10" y="234">&gt; server listening on http-port 55813</tspan>
<tspan x="10" y="250">created apidoc file:///home/travis/build/npmdoc/node-npmdoc-gulp-minify-html/tmp/build/apidoc.ht\</tspan>
<tspan x="10" y="266">ml</tspan>
<tspan x="10" y="282"></tspan>
<tspan x="10" y="298"></tspan>
<tspan x="10" y="314">browserTest - created electron entry-page /home/travis/build/npmdoc/node-npmdoc-gulp-minify-html\</tspan>
<tspan x="10" y="330">/tmp/electron.15b053293e50.808d8ae05241e.html</tspan>
<tspan x="10" y="346"></tspan>
<tspan x="10" y="362">[node test-case 1 of 6 passed] - testCase_buildLib_default</tspan>
<tspan x="10" y="378">[node test-case 2 of 6 passed] - testCase_buildReadme_default</tspan>
<tspan x="10" y="394">[node test-case 3 of 6 passed] - testCase_buildTest_default</tspan>
<tspan x="10" y="410"></tspan>
<tspan x="10" y="426">browserTest - created electron entry-page /home/travis/build/npmdoc/node-npmdoc-gulp-minify-html\</tspan>
<tspan x="10" y="442">/tmp/electron.15b053294330.6aafa55fa2e7d.html</tspan>
<tspan x="10" y="458"></tspan>
<tspan x="10" y="474">(node:5059) DeprecationWarning: node --debug is deprecated. Please use node --inspect instead.</tspan>
<tspan x="10" y="490">Xlib:  extension "RANDR" missing on display ":99.0".</tspan>
<tspan x="10" y="506">Xlib:  extension "RANDR" missing on display ":99.0".</tspan>
<tspan x="10" y="522">&gt; server listening on http-port 39526</tspan>
<tspan x="10" y="538"></tspan>
<tspan x="10" y="554">/home/travis/build/npmdoc/node-npmdoc-gulp-minify-html/node_modules/utility2/lib.utility2.sh.htm\</tspan>
<tspan x="10" y="570">l.js</tspan>
<tspan x="10" y="586"> #1 Line too long.</tspan>
<tspan x="10" y="602">    process.stdout.write('export npm_package_' + key.replace((/\W/g), '_') + '=' + JSON.stringif\</tspan>
<tspan x="10" y="618">y(value) + ';'); // Line 1445, Pos 116</tspan>
<tspan x="10" y="634"></tspan>
<tspan x="10" y="650"></tspan>
<tspan x="10" y="666">/home/travis/build/npmdoc/node-npmdoc-gulp-minify-html/node_modules/utility2/lib.utility2.sh.htm\</tspan>
<tspan x="10" y="682">l.js</tspan>
<tspan x="10" y="698"> #1 Line too long.</tspan>
<tspan x="10" y="714">    process.stdout.write('export npm_package_' + key.replace((/\W/g), '_') + '=' + JSON.stringif\</tspan>
<tspan x="10" y="730">y(value) + ';'); // Line 1445, Pos 116</tspan>
<tspan x="10" y="746"></tspan>
<tspan x="10" y="762">merging file:///home/travis/build/npmdoc/node-npmdoc-gulp-minify-html/tmp/build/test-report.json\</tspan>
<tspan x="10" y="778"> to test-report</tspan>
<tspan x="10" y="794">Xlib:  extension "RANDR" missing on display ":99.0".</tspan>
<tspan x="10" y="810">merging file:///home/travis/build/npmdoc/node-npmdoc-gulp-minify-html/tmp/build/test-report.json\</tspan>
<tspan x="10" y="826"> to test-report</tspan>
<tspan x="10" y="842">[5094:0325/112053:WARNING:audio_manager.cc(314)] Multiple instances of AudioManager detected</tspan>
<tspan x="10" y="858">[5094:0325/112053:WARNING:audio_manager.cc(275)] Multiple instances of AudioManager detected</tspan>
<tspan x="10" y="874">Xlib:  extension "RANDR" missing on display ":99.0".</tspan>
<tspan x="10" y="890">[5090:0325/112053:WARNING:audio_manager.cc(314)] Multiple instances of AudioManager detected</tspan>
<tspan x="10" y="906">[5090:0325/112053:WARNING:audio_manager.cc(275)] Multiple instances of AudioManager detected</tspan>
<tspan x="10" y="922">[5117:0325/112053:ERROR:sandbox_linux.cc(343)] InitializeSandbox() called with multiple threads \</tspan>
<tspan x="10" y="938">in process gpu-process. </tspan>
<tspan x="10" y="954">[5094:0325/112053:ERROR:browser_gpu_channel_host_factory.cc(131)] Failed to create channel.</tspan>
<tspan x="10" y="970">[5137:0325/112053:ERROR:sandbox_linux.cc(343)] InitializeSandbox() called with multiple threads \</tspan>
<tspan x="10" y="986">in process gpu-process. </tspan>
<tspan x="10" y="1002">[5090:0325/112053:ERROR:browser_gpu_channel_host_factory.cc(131)] Failed to create channel.</tspan>
<tspan x="10" y="1018"></tspan>
<tspan x="10" y="1034">browserTest - opened url file:///home/travis/build/npmdoc/node-npmdoc-gulp-minify-html/tmp/build\</tspan>
<tspan x="10" y="1050">/apidoc.html</tspan>
<tspan x="10" y="1066"></tspan>
<tspan x="10" y="1082"></tspan>
<tspan x="10" y="1098">browserTest - opened url http://127.0.0.1:55813?modeTest=1</tspan>
<tspan x="10" y="1114"></tspan>
<tspan x="10" y="1130">[5094:0325/112055:INFO:CONSOLE(203)] "----------|-----------|-----------|-----------|-----------\</tspan>
<tspan x="10" y="1146">|</tspan>
<tspan x="10" y="1162">File      |   % Stmts |% Branches |   % Funcs |   % Lines |</tspan>
<tspan x="10" y="1178">----------|-----------|-----------|-----------|-----------|</tspan>
<tspan x="10" y="1194">----------|-----------|-----------|-----------|-----------|</tspan>
<tspan x="10" y="1210">All files |       100 |       100 |       100 |       100 |</tspan>
<tspan x="10" y="1226">----------|-----------|-----------|-----------|-----------|</tspan>
<tspan x="10" y="1242">", source: file:///home/travis/build/npmdoc/node-npmdoc-gulp-minify-html/tmp/electron.15b0532943\</tspan>
<tspan x="10" y="1258">30.6aafa55fa2e7d.html (203)</tspan>
<tspan x="10" y="1274">[5094:0325/112055:INFO:CONSOLE(203)] "created coverage file:///tmp/build/coverage.html/index.htm\</tspan>
<tspan x="10" y="1290">l", source: file:///home/travis/build/npmdoc/node-npmdoc-gulp-minify-html/tmp/electron.15b053294\</tspan>
<tspan x="10" y="1306">330.6aafa55fa2e7d.html (203)</tspan>
<tspan x="10" y="1322">[node test-case 4 of 6 passed] - testCase_buildApp_default</tspan>
<tspan x="10" y="1338"></tspan>
<tspan x="10" y="1354">browserTest - created screen-capture file:///home/travis/build/npmdoc/node-npmdoc-gulp-minify-ht\</tspan>
<tspan x="10" y="1370">ml/tmp/build/screen-capture.npmTest.browser._2Fhome_2Ftravis_2Fbuild_2Fnpmdoc_2Fnode-npmdoc-gulp\</tspan>
<tspan x="10" y="1386">-minify-html_2Ftmp_2Fbuild_2Fapidoc.html.png</tspan>
<tspan x="10" y="1402"></tspan>
<tspan x="10" y="1418"></tspan>
<tspan x="10" y="1434">browserTest - exit-code 0 - file:///home/travis/build/npmdoc/node-npmdoc-gulp-minify-html/tmp/bu\</tspan>
<tspan x="10" y="1450">ild/apidoc.html</tspan>
<tspan x="10" y="1466"></tspan>
<tspan x="10" y="1482">[node test-case 5 of 6 passed] - testCase_buildApidoc_default</tspan>
<tspan x="10" y="1498"></tspan>
<tspan x="10" y="1514">browserTest - created screen-capture file:///home/travis/build/npmdoc/node-npmdoc-gulp-minify-ht\</tspan>
<tspan x="10" y="1530">ml/tmp/build/screen-capture.npmTest.browser..png</tspan>
<tspan x="10" y="1546"></tspan>
<tspan x="10" y="1562"></tspan>
<tspan x="10" y="1578">browserTest - exit-code 0 - http://127.0.0.1:55813?modeTest=1</tspan>
<tspan x="10" y="1594"></tspan>
<tspan x="10" y="1610"></tspan>
<tspan x="10" y="1626">browserTest - merged coverage from /home/travis/build/npmdoc/node-npmdoc-gulp-minify-html/tmp/co\</tspan>
<tspan x="10" y="1642">verage.npmTest.browser.%2F.json</tspan>
<tspan x="10" y="1658"></tspan>
<tspan x="10" y="1674"></tspan>
<tspan x="10" y="1690">browserTest - merging test-report from /home/travis/build/npmdoc/node-npmdoc-gulp-minify-html/tm\</tspan>
<tspan x="10" y="1706">p/test-report.npmTest.browser.%2F.json</tspan>
<tspan x="10" y="1722"></tspan>
<tspan x="10" y="1738">[node test-case 6 of 6 passed] - testCase_webpage_default</tspan>
<tspan x="10" y="1754">-------------------------------------|-----------|-----------|-----------|-----------|</tspan>
<tspan x="10" y="1770">File                                 |   % Stmts |% Branches |   % Funcs |   % Lines |</tspan>
<tspan x="10" y="1786">-------------------------------------|-----------|-----------|-----------|-----------|</tspan>
<tspan x="10" y="1802">   node-npmdoc-gulp-minify-html/     |       100 |       100 |       100 |       100 |</tspan>
<tspan x="10" y="1818">      example.js                     |       100 |       100 |       100 |       100 |</tspan>
<tspan x="10" y="1834">      lib.npmdoc_gulp_minify_html.js |       100 |       100 |       100 |       100 |</tspan>
<tspan x="10" y="1850">      test.js                        |       100 |       100 |       100 |       100 |</tspan>
<tspan x="10" y="1866">-------------------------------------|-----------|-----------|-----------|-----------|</tspan>
<tspan x="10" y="1882">All files                            |       100 |       100 |       100 |       100 |</tspan>
<tspan x="10" y="1898">-------------------------------------|-----------|-----------|-----------|-----------|</tspan>
<tspan x="10" y="1914"></tspan>
<tspan x="10" y="1930">created coverage file:///home/travis/build/npmdoc/node-npmdoc-gulp-minify-html/tmp/build/coverag\</tspan>
<tspan x="10" y="1946">e.html/index.html</tspan>
<tspan x="10" y="1962"></tspan>
<tspan x="10" y="1978">/home/travis/build/npmdoc/node-npmdoc-gulp-minify-html/node_modules/utility2/lib.utility2.sh.htm\</tspan>
<tspan x="10" y="1994">l.js</tspan>
<tspan x="10" y="2010"> #1 Line too long.</tspan>
<tspan x="10" y="2026">    process.stdout.write('export npm_package_' + key.replace((/\W/g), '_') + '=' + JSON.stringif\</tspan>
<tspan x="10" y="2042">y(value) + ';'); // Line 1445, Pos 116</tspan>
<tspan x="10" y="2058"></tspan>
<tspan x="10" y="2074">merging file:///home/travis/build/npmdoc/node-npmdoc-gulp-minify-html/tmp/build/test-report.json\</tspan>
<tspan x="10" y="2090"> to test-report</tspan>
<tspan x="10" y="2106"></tspan>
<tspan x="10" y="2122">-------------------------------------------------------</tspan>
<tspan x="10" y="2138">| test-report - buildNpmdoc - node - linux v7.7.4 - 2017-03-25T11:20:41.633Z</tspan>
<tspan x="10" y="2154">|   16083 ms            0 failed        6 passed      |</tspan>
<tspan x="10" y="2170">-------------------------------------------------------</tspan>
<tspan x="10" y="2186"></tspan>
<tspan x="10" y="2202">created test-report file:///home/travis/build/npmdoc/node-npmdoc-gulp-minify-html/tmp/build/test\</tspan>
<tspan x="10" y="2218">-report.html</tspan>
<tspan x="10" y="2234"></tspan>
<tspan x="10" y="2250"></tspan>
<tspan x="10" y="2266">npmTest - 0 failed tests</tspan>
<tspan x="10" y="2282"></tspan>
<tspan x="10" y="2298"></tspan>
<tspan x="10" y="2314">[MODE_BUILD=npmTest] - 2017-03-25T11:21:00Z - EXIT_CODE - 0</tspan>
</text>
</svg>
